<svg xmlns="http://www.w3.org/2000/svg" xmlns:xlink="http://www.w3.org/1999/xlink" version="1.0" x="0" y="0" width="2400" height="591.7662818269755" viewBox="29.691666259765626 90.40427459716797 280.6166674804688 69.19145080566406" preserveAspectRatio="xMidYMid meet" color-interpolation-filters="sRGB"><g><defs><linearGradient id="92" x1="0%" y1="0%" x2="100%" y2="0%"><stop offset="0%" stop-color="#fa71cd"></stop> <stop offset="100%" stop-color="#9b59b6"></stop></linearGradient><linearGradient id="93" x1="0%" y1="0%" x2="100%" y2="0%"><stop offset="0%" stop-color="#f9d423"></stop> <stop offset="100%" stop-color="#f83600"></stop></linearGradient><linearGradient id="94" x1="0%" y1="0%" x2="100%" y2="0%"><stop offset="0%" stop-color="#0064d2"></stop> <stop offset="100%" stop-color="#1cb0f6"></stop></linearGradient><linearGradient id="95" x1="0%" y1="0%" x2="100%" y2="0%"><stop offset="0%" stop-color="#f00978"></stop> <stop offset="100%" stop-color="#3f51b1"></stop></linearGradient><linearGradient id="96" x1="0%" y1="0%" x2="100%" y2="0%"><stop offset="0%" stop-color="#7873f5"></stop> <stop offset="100%" stop-color="#ec77ab"></stop></linearGradient><linearGradient id="97" x1="0%" y1="0%" x2="100%" y2="0%"><stop offset="0%" stop-color="#f9d423"></stop> <stop offset="100%" stop-color="#e14fad"></stop></linearGradient><linearGradient id="98" x1="0%" y1="0%" x2="100%" y2="0%"><stop offset="0%" stop-color="#009efd"></stop> <stop offset="100%" stop-color="#2af598"></stop></linearGradient><linearGradient id="99" x1="0%" y1="0%" x2="100%" y2="0%"><stop offset="0%" stop-color="#ffcc00"></stop> <stop offset="100%" stop-color="#00b140"></stop></linearGradient><linearGradient id="100" x1="0%" y1="0%" x2="100%" y2="0%"><stop offset="0%" stop-color="#d51007"></stop> <stop offset="100%" stop-color="#ff8177"></stop></linearGradient><linearGradient id="102" x1="0%" y1="0%" x2="100%" y2="0%"><stop offset="0%" stop-color="#a2b6df"></stop> <stop offset="100%" stop-color="#0c3483"></stop></linearGradient><linearGradient id="103" x1="0%" y1="0%" x2="100%" y2="0%"><stop offset="0%" stop-color="#7ac5d8"></stop> <stop offset="100%" stop-color="#eea2a2"></stop></linearGradient><linearGradient id="104" x1="0%" y1="0%" x2="100%" y2="0%"><stop offset="0%" stop-color="#00ecbc"></stop> <stop offset="100%" stop-color="#007adf"></stop></linearGradient><linearGradient id="105" x1="0%" y1="0%" x2="100%" y2="0%"><stop offset="0%" stop-color="#b88746"></stop> <stop offset="100%" stop-color="#fdf5a6"></stop></linearGradient></defs><g fill="#333" class="icon-text-wrapper icon-svg-group iconsvg" transform="translate(32.44281005859375,93.1554183959961)"><g fill="#ff8533" class="iconsvg-imagesvg icon_container" transform="translate(52.31083297729492,0)"><rect fill="#333" fill-opacity="0" stroke-width="2" x="0" y="0" width="63.689164830763055" height="63.689164830763055" class="image-rect"></rect> <svg viewBox="0 0 60 59.89578134046758" x="0" y="0" width="63.689164830763055" height="63.689164830763055" class="image-svg-svg bn" style="overflow: visible;"><g hollow-target=""><g><svg xmlns="http://www.w3.org/2000/svg" viewBox="-0.00001 0 65.00002 64.887" style="overflow: visible;" width="60" height="59.89578134046758" x="0" y="0" filtersec="colorsb2719265064" filter="url(#rZwdeOipmS3v_flDJZvbf)"><g transform="scale(1, 1) skewX(0)"><path d="M29.969 4.238l.44-.04V0l-.52.042c-8.113.65-15.645 4.31-21.21 10.309A32.385 32.385 0 0 0 0 32.444a32.389 32.389 0 0 0 8.678 22.093c5.564 5.997 13.098 9.658 21.21 10.309l.52.041v-4.214l-.44-.04c-7.007-.622-13.507-3.835-18.304-9.047A28.226 28.226 0 0 1 4.18 32.429c0-7.11 2.66-13.91 7.485-19.15C16.46 8.07 22.96 4.859 29.97 4.238m26.352 6.113C50.758 4.353 43.224.69 35.112.04L34.593 0v4.198l.44.04c7.007.622 13.507 3.836 18.304 9.048a28.225 28.225 0 0 1 7.483 19.157c0 7.109-2.658 13.912-7.483 19.157-4.796 5.213-11.296 8.426-18.304 9.048l-.44.039v4.198l.52-.042c8.113-.65 15.645-4.311 21.21-10.309A32.39 32.39 0 0 0 65 32.441a32.387 32.387 0 0 0-8.678-22.092" fill="#000" fill-rule="nonzero"></path></g><defs><filter id="rZwdeOipmS3v_flDJZvbf"><feColorMatrix type="matrix" values="0 0 0 0 0.99609375  0 0 0 0 0.51953125  0 0 0 0 0.19921875  0 0 0 1 0"></feColorMatrix></filter></defs></svg></g> <g><svg xmlns="http://www.w3.org/2000/svg" viewBox="0 -0.020796293392777443 100.0036849975586 100.14386749267578" width="47.599999999999994" height="47.5173188" x="6.200000000000003" y="6.18923127023379" class="image-svg-icon"><path d="M0 50c0-.81 0-1.63.06-2.44a1.62 1.62 0 0 0 0-.22 50 50 0 0 1 94.08-20.83.25.25 0 0 1 0 .07c.65 1.22 1.25 2.48 1.8 3.76L69.1 57.22a2.22 2.22 0 0 1-3.11.05l-24.7-23a13.7 13.7 0 0 0-19.12.33l-14 14-7.76 7.73A49.44 49.44 0 0 1 0 50z" fill="#4f8cef"></path><path d="M3.83 69.21l6.33-6.34 20.16-20.15a2.23 2.23 0 0 1 3.11-.06l24.7 23a13.71 13.71 0 0 0 19.12-.33l22.26-22.22A48 48 0 0 1 100 50v2.28a1.36 1.36 0 0 1 0 .2A50 50 0 0 1 5.82 73.43a.14.14 0 0 1 0-.06c-.75-1.37-1.4-2.75-1.99-4.16z" fill="#ff8533"></path></svg></g></g></svg> </g> <g transform="translate(0,4.925382614135742)"><g fill-rule="" stroke="#333" class="tp-name iconsvg-namesvg"><g transform="scale(0.8799999999999999)"><g><path d="M41.56 0L25.52 0 12.258532688857983-59.34 27.738532688857983-59.34 36.134616263500895-16.95 58.04853268885798-59.34 73.61853268885798-59.34 41.56 0ZM172.68428631490144 0.92L172.68428631490144 0.92Q164.39428631490142 0.92 158.68717277056794-1.75 152.98005922623446-4.42 150.45157753793825-9.67 147.92467969404532-14.93 149.1347368181248-22.57L149.1347368181248-22.57 154.95853268885799-59.34 169.78853268885797-59.34 164.18489119017588-23.96Q163.20607534897024-17.78 165.95458665038367-14.74 168.69309795179709-11.7 174.6830979517971-11.7L174.6830979517971-11.7Q180.67309795179708-11.7 184.38458665038368-14.74 188.08607534897027-17.78 189.0648911901759-23.96L189.0648911901759-23.96 194.668532688858-59.34 209.508532688858-59.34 203.6847368181248-22.57Q202.47467969404534-14.93 198.27157753793827-9.67 194.08005922623445-4.42 187.52717277056794-1.75 180.97428631490143 0.92 172.68428631490144 0.92ZM237.93428631490144 0.92L237.93428631490144 0.92Q222.36428631490142 0.92 215.476610304288-7.05 208.57893429367454-15.02 210.82640950187968-29.21L210.82640950187968-29.21Q213.17525075189258-44.04 222.42974856292454-52.15 231.68424637395654-60.26 247.53424637395656-60.26L247.53424637395656-60.26Q252.97424637395656-60.26 257.1227872884872-59.43 261.27132820301784-58.6 265.02275767537-57.22L265.02275767537-57.22 262.96534379555425-44.23Q255.46959629302845-47.54 246.61959629302845-47.54L246.61959629302845-47.54Q237.40959629302844-47.54 232.429537066794-43.12 227.43947784055956-38.7 225.9364095018797-29.21L225.9364095018797-29.21Q224.50619800574916-20.18 228.35464797877313-15.94 232.19309795179709-11.7 241.13309795179708-11.7L241.13309795179708-11.7Q245.4630979517971-11.7 249.82822165965345-12.49 254.1917615231066-13.27 258.41467969404533-14.93L258.41467969404533-14.93 256.34142737019715-1.84Q252.2671114421785-0.55 247.82149080074157 0.18 243.37428631490144 0.92 237.93428631490144 0.92ZM277.44 0L262.6 0 271.998532688858-59.34 286.838532688858-59.34 283.11649834123136-35.84 306.3364983412314-35.84 310.058532688858-59.34 324.888532688858-59.34 315.49 0 300.66 0 304.38203434762664-23.5 281.1620343476266-23.5 277.44 0Z" transform="translate(-12.258532524108887, 60.2599983215332)" stroke-width="0.9" stroke-linejoin="round"></path></g> </g></g> </g></g><defs v-gra="od"></defs></g></svg>